<svg xmlns="http://www.w3.org/2000/svg" viewBox="0 0 120 120" fill="none">
  <defs>
    <linearGradient id="grad1" x1="0%" y1="0%" x2="100%" y2="100%">
      <stop offset="0%" style="stop-color:#00d4ff;stop-opacity:1" />
      <stop offset="100%" style="stop-color:#a855f7;stop-opacity:1" />
    </linearGradient>
    <linearGradient id="grad2" x1="0%" y1="0%" x2="100%" y2="100%">
      <stop offset="0%" style="stop-color:#00d4ff;stop-opacity:0.3" />
      <stop offset="100%" style="stop-color:#a855f7;stop-opacity:0.3" />
    </linearGradient>
  </defs>
  
  <!-- Background Circle -->
  <circle cx="60" cy="60" r="56" fill="url(#grad2)" stroke="url(#grad1)" stroke-width="2"/>
  
  <!-- Neural Network Lines -->
  <path d="M30 40 L50 60 L30 80" stroke="url(#grad1)" stroke-width="2" fill="none" opacity="0.6"/>
  <path d="M90 40 L70 60 L90 80" stroke="url(#grad1)" stroke-width="2" fill="none" opacity="0.6"/>
  <path d="M40 30 L60 50 L80 30" stroke="url(#grad1)" stroke-width="2" fill="none" opacity="0.6"/>
  <path d="M40 90 L60 70 L80 90" stroke="url(#grad1)" stroke-width="2" fill="none" opacity="0.6"/>
  
  <!-- Center Star/Sparkle -->
  <path d="M60 35 L63 55 L83 60 L63 65 L60 85 L57 65 L37 60 L57 55 Z" fill="url(#grad1)"/>
  
  <!-- Dots/Nodes -->
  <circle cx="30" cy="40" r="4" fill="#00d4ff"/>
  <circle cx="30" cy="80" r="4" fill="#00d4ff"/>
  <circle cx="90" cy="40" r="4" fill="#a855f7"/>
  <circle cx="90" cy="80" r="4" fill="#a855f7"/>
  <circle cx="40" cy="30" r="4" fill="#00d4ff"/>
  <circle cx="80" cy="30" r="4" fill="#a855f7"/>
  <circle cx="40" cy="90" r="4" fill="#00d4ff"/>
  <circle cx="80" cy="90" r="4" fill="#a855f7"/>
  <circle cx="60" cy="60" r="6" fill="white"/>
</svg>

